<svg xmlns="http://www.w3.org/2000/svg" viewBox="0 0 500 500"><defs><style>.cls-1,.cls-4{fill:#fff;}.cls-2{fill:#1a1a1a;}.cls-3{font-size:30px;font-family:RobotoMonoForPowerline-Regular, Roboto Mono for Powerline;}.cls-4{font-size:12px;font-family:RobotoMonoForPowerline-BoldItalic, Roboto Mono for Powerline;font-weight:700;font-style:italic;}</style></defs><g id="Layer_1" data-name="Layer 1"><path class="cls-1" d="M250,499.5A249.5,249.5,0,0,1,73.58,73.58,249.5,249.5,0,1,1,426.42,426.42,247.84,247.84,0,0,1,250,499.5Z"/><path d="M250,1A248.93,248.93,0,0,1,426.07,426.07a249,249,0,1,1-273-405.5A247.32,247.32,0,0,1,250,1m0-1C111.93,0,0,111.93,0,250S111.93,500,250,500,500,388.07,500,250,388.07,0,250,0Z"/><circle class="cls-1" cx="250" cy="250" r="174.5"/><path d="M250,76a174,174,0,1,1-123,51A172.89,172.89,0,0,1,250,76m0-1A175,175,0,1,0,425,250,175,175,0,0,0,250,75Z"/><circle class="cls-2" cx="250" cy="250" r="99.5"/><path d="M250,151a99,99,0,1,1-99,99,99.11,99.11,0,0,1,99-99m0-1A100,100,0,1,0,350,250,100,100,0,0,0,250,150Z"/></g><g id="Layer_3" data-name="Layer 3"><text class="cls-3" transform="translate(208.99 54) rotate(-9.17)">A</text><text class="cls-3" transform="translate(226.33 51.18) rotate(-4.15)">B</text><text class="cls-3" transform="matrix(1, 0.02, -0.02, 1, 243.83, 49.87)">O</text><text class="cls-3" transform="matrix(0.99, 0.1, -0.1, 0.99, 261.42, 50.12)">U</text><text class="cls-3" transform="translate(278.87 51.86) rotate(10.8)">T</text><circle class="cls-2" cx="250" cy="250" r="99.5"/><path d="M250,151a99,99,0,1,1-99,99,99.11,99.11,0,0,1,99-99m0-1A100,100,0,1,0,350,250,100,100,0,0,0,250,150Z"/><text class="cls-4" transform="translate(228.87 245.51)">Hello!<tspan x="-45.78" y="16">My name is Molly...</tspan></text></g></svg>