<svg id="Layer_1" data-name="Layer 1" xmlns="http://www.w3.org/2000/svg" viewBox="0 0 810 689"><defs><style>.cls-1{fill:none;stroke:#000;stroke-miterlimit:10;}.cls-2,.cls-3{font-size:30px;}.cls-2{font-family:RobotoMonoForPowerline-Regular, Roboto Mono for Powerline;}.cls-3{font-family:ArimoForPowerline, Arimo for Powerline;}</style></defs><path d="M250.2,1A248.78,248.78,0,0,1,499,250,249,249,0,0,1,20.62,346.92,249.05,249.05,0,0,1,250,1h.2m0-1H250C111.9.1-.13,112.34,0,250,.13,388.07,111.93,500,250,500S500,388.07,500,250,388.18,0,250.19,0Z" transform="translate(0 189)"/><path class="cls-1" d="M432.87,208.81" transform="translate(0 189)"/><text class="cls-2" transform="matrix(0.74, -0.67, 0.67, 0.74, 111.87, 301.17)">	</text><text class="cls-2" transform="translate(136.33 280.38) rotate(-33.05)">	</text><text class="cls-2" transform="translate(163.85 263.86) rotate(-23.61)">	</text><text class="cls-2" transform="matrix(0.97, -0.24, 0.24, 0.97, 193.69, 252.08)">A</text><text class="cls-2" transform="matrix(0.99, -0.16, 0.16, 0.99, 210.72, 247.78)">B</text><text class="cls-2" transform="translate(228.05 245.03) rotate(-3.81)">O</text><text class="cls-2" transform="translate(245.56 243.85) rotate(1.27)">U</text><text class="cls-2" transform="translate(263.1 244.22) rotate(6.39)">T</text><text class="cls-2" transform="translate(280.56 246.15) rotate(11.56)">	</text><text class="cls-2" transform="translate(289.05 247.67) rotate(14.12)">	</text><text class="cls-2" transform="matrix(0.92, 0.4, -0.4, 0.92, 319.87, 256.63)">	</text><text class="cls-2" transform="matrix(0.84, 0.55, -0.55, 0.84, 348.78, 270.56)">	</text><text class="cls-2" transform="translate(375.02 289.04) rotate(42.49)">	</text><text class="cls-2" transform="translate(397.9 311.56) rotate(51.87)">	</text><text class="cls-2" transform="translate(416.8 337.53) rotate(61.29)">	</text><text class="cls-2" transform="translate(431.19 366.22) rotate(70.77)">	</text><text class="cls-2" transform="translate(440.65 396.88) rotate(80.26)">A</text><text class="cls-2" transform="matrix(0.08, 1, -1, 0.08, 443.64, 414.17)">R</text><text class="cls-2" transform="translate(445.14 431.62) rotate(90.93)">T</text><text class="cls-2" transform="matrix(-0.1, 1, -1, -0.1, 444.95, 449.21)">I</text><text class="cls-2" transform="translate(443.26 466.7) rotate(100.73)">C</text><text class="cls-2" transform="translate(440.01 483.93) rotate(105.92)">L</text><text class="cls-2" transform="translate(435.22 500.81) rotate(111.11)">E</text><text class="cls-2" transform="translate(428.92 517.18) rotate(116.29)">S</text><text class="cls-2" transform="matrix(-0.52, 0.85, -0.85, -0.52, 421.17, 532.92)">	</text><text class="cls-2" transform="translate(410.51 550.13) rotate(127.38)">	</text><text class="cls-2" transform="translate(390.11 574.92) rotate(136.76)">	</text><text class="cls-2" transform="matrix(-0.83, 0.56, -0.56, -0.83, 365.95, 596.05)">	</text><text class="cls-2" transform="matrix(-0.91, 0.41, -0.41, -0.91, 338.65, 612.96)">	</text><text class="cls-2" transform="translate(308.96 625.15) rotate(165.1)">	</text><text class="cls-2" transform="translate(277.67 632.26) rotate(174.56)">	</text><text class="cls-2" transform="translate(245.6 634.16) rotate(-176.12)">	</text><text class="cls-2" transform="matrix(-0.97, -0.23, 0.23, -0.97, 213.7, 630.84)">	</text><text class="cls-2" transform="matrix(-0.92, -0.39, 0.39, -0.92, 182.75, 622.31)">	</text><text class="cls-2" transform="matrix(-0.85, -0.53, 0.53, -0.85, 153.65, 608.8)">	</text><text class="cls-2" transform="translate(127.14 590.67) rotate(-138.31)">	</text><text class="cls-2" transform="translate(103.96 568.48) rotate(-128.94)">P</text><text class="cls-2" transform="translate(92.91 554.84) rotate(-123.8)">R</text><text class="cls-2" transform="translate(83.13 540.27) rotate(-118.66)">O</text><text class="cls-2" transform="matrix(-0.4, -0.92, 0.92, -0.4, 74.69, 524.88)">J</text><text class="cls-2" transform="translate(67.68 508.79) rotate(-108.31)">E</text><text class="cls-2" transform="translate(62.15 492.14) rotate(-103.13)">C</text><text class="cls-2" transform="translate(58.15 475.07) rotate(-97.97)">T</text><text class="cls-2" transform="translate(55.69 457.67) rotate(-92.85)">S</text><text class="cls-2" transform="matrix(0.04, -1, 1, 0.04, 54.8, 440.15)">	</text><text class="cls-2" transform="translate(55.7 419.93) rotate(-81.82)">	</text><text class="cls-2" transform="translate(61.42 388.36) rotate(-72.3)">	</text><text class="cls-2" transform="matrix(0.46, -0.89, 0.89, 0.46, 72.29, 358.16)">	</text><text class="cls-2" transform="translate(87.99 330.16) rotate(-53.37)">	</text><text class="cls-2" transform="matrix(0.72, -0.69, 0.69, 0.72, 108.06, 305.1)">	</text><path class="cls-1" d="M378,90.46" transform="translate(0 189)"/><path class="cls-1" d="M147.74,97.17" transform="translate(0 189)"/><path class="cls-1" d="M110.47,55.07" transform="translate(0 189)"/><path class="cls-1" d="M458.13,376.13" transform="translate(0 189)"/><path class="cls-1" d="M410.18,346.76" transform="translate(0 189)"/><path class="cls-1" d="M413.53,68.3" transform="translate(0 189)"/><path class="cls-1" d="M365.47,103.32" transform="translate(0 189)"/><path class="cls-1" d="M68.09,295.12" transform="translate(0 189)"/><path class="cls-1" d="M16.94,318.46" transform="translate(0 189)"/><path class="cls-1" d="M228.94,428.71" transform="translate(0 189)"/><path class="cls-1" d="M223.57,484.68" transform="translate(0 189)"/><path class="cls-1" d="M414.5,189.5" transform="translate(0 189)"/><path class="cls-1" d="M486.5,171.5" transform="translate(0 189)"/><path class="cls-1" d="M368.5,468.5" transform="translate(0 189)"/><path class="cls-1" d="M332.5,397" transform="translate(0 189)"/><text y="189"/><text y="189"/><path d="M250.14,76A174,174,0,0,1,250,424a174,174,0,0,1,0-348h.14m0-1H250c-96.67.07-175.09,78.64-175,175,.09,96.65,78.35,175,175,175A175,175,0,0,0,425,250c0-96.61-78.27-175-174.87-175Z" transform="translate(0 189)"/><path d="M250,349.5A99.68,99.68,0,0,1,150.5,250,99.5,99.5,0,1,1,250,349.5Z" transform="translate(0 189)"/><path d="M250.08,151a99,99,0,1,1-.08,0h.08m0-1H250a100,100,0,1,0,.08,0Z" transform="translate(0 189)"/><text class="cls-3" transform="translate(156.82 363.33) rotate(-48.87)"> </text><text class="cls-3" transform="matrix(0.71, -0.71, 0.71, 0.71, 162.08, 357.29)">	</text><text class="cls-3" transform="translate(180.6 340.55) rotate(-30.1)">C</text><text class="cls-3" transform="translate(198.55 329.98) rotate(-19.76)">O</text><text class="cls-3" transform="matrix(0.99, -0.16, 0.16, 0.99, 219.73, 322.37)">N</text><text class="cls-3" transform="matrix(1, -0.02, 0.02, 1, 240.33, 319.16)">T</text><text class="cls-3" transform="translate(255.83 318.72) rotate(7.44)">A</text><text class="cls-3" transform="translate(274.91 321.07) rotate(17.05)">C</text><text class="cls-3" transform="translate(294.87 327.27) rotate(26.29)">T</text><text class="cls-3" transform="translate(310.25 335.1) rotate(32.16)"> </text><text class="cls-3" transform="translate(317.04 339.35) rotate(35.98)"> </text><text class="cls-3" transform="matrix(0.77, 0.64, -0.64, 0.77, 323.53, 344.04)"> </text><text class="cls-3" transform="translate(329.67 349.15) rotate(43.58)"> </text><text class="cls-3" transform="matrix(0.68, 0.74, -0.74, 0.68, 335.49, 354.67)"> </text><text class="cls-3" transform="translate(340.92 360.56) rotate(51.18)"> </text><text class="cls-3" transform="matrix(0.57, 0.82, -0.82, 0.57, 345.95, 366.79)"> </text><text class="cls-3" transform="matrix(0.52, 0.86, -0.86, 0.52, 350.55, 373.33)">	</text><text class="cls-3" transform="translate(353.97 378.89) rotate(61.92)">	</text><text class="cls-3" transform="translate(366.44 409.55) rotate(77.85)">	</text><text class="cls-3" transform="matrix(-0.06, 1, -1, -0.06, 370.03, 442.45)">	</text><text class="cls-3" transform="translate(364.56 475.08) rotate(109.47)">	</text><text class="cls-3" transform="translate(350.35 504.95) rotate(125.36)"> </text><text class="cls-3" transform="translate(345.71 511.5) rotate(129.17)"> </text><text class="cls-3" transform="matrix(-0.68, 0.73, -0.73, -0.68, 340.67, 517.71)"> </text><text class="cls-3" transform="matrix(-0.73, 0.69, -0.69, -0.73, 335.22, 523.58)"> </text><text class="cls-3" transform="translate(329.41 529.06) rotate(140.55)"> </text><text class="cls-3" transform="translate(323.22 534.17) rotate(144.37)"> </text><text class="cls-3" transform="translate(316.73 538.84) rotate(148.18)"> </text><text class="cls-3" transform="matrix(-0.91, 0.42, -0.42, -0.91, 310.34, 543.31)">R</text><text class="cls-3" transform="translate(291.43 552.1) rotate(164.68)">E</text><text class="cls-3" transform="translate(272.88 557.24) rotate(173.88)">S</text><text class="cls-3" transform="translate(253.73 559.42) rotate(-176.67)">U</text><text class="cls-3" transform="translate(232.95 558.45) rotate(-165.97)">M</text><text class="cls-3" transform="translate(209.57 552.46) rotate(-155.58)">E</text><text class="cls-3" transform="translate(192 544.15) rotate(-149.06)">	</text><text y="189"/></svg>
